HIERARCHY
ROOT Hips
{
  OFFSET 53.6444 84.6703 1.66653
  CHANNELS 6 Xposition Yposition Zposition Zrotation Xrotation Yrotation
  JOINT spine
  {
    OFFSET 0 5.95438 0.342407
    CHANNELS 3 Zrotation Xrotation Yrotation
    JOINT spine1
    {
      OFFSET 0 8.85602 0
      CHANNELS 3 Zrotation Xrotation Yrotation
      JOINT spine2
      {
        OFFSET 0 8.48567 0
        CHANNELS 3 Zrotation Xrotation Yrotation
        JOINT Neck
        {
          OFFSET 0 21.7863 1.0387
          CHANNELS 3 Zrotation Xrotation Yrotation
          JOINT Head
          {
            OFFSET 0 6.5822 0
            CHANNELS 3 Zrotation Xrotation Yrotation
            End Site
            {
              OFFSET 0 15.9326 -5.25436
            }
          }
        }
        JOINT RightShoulder
        {
          OFFSET -3.57307 9.16386 -0.497525
          CHANNELS 3 Zrotation Xrotation Yrotation
          JOINT RightArm
          {
            OFFSET 0 12.0192 0
            CHANNELS 3 Zrotation Xrotation Yrotation
            JOINT RightArmRoll
            {
              OFFSET 0 6.06755 0
              CHANNELS 3 Zrotation Xrotation Yrotation
              JOINT RightForeArm
              {
                OFFSET 0 17.6726 0
                CHANNELS 3 Zrotation Xrotation Yrotation
                JOINT RightForeArmRoll
                {
                  OFFSET 0 6.80872 0
                  CHANNELS 3 Zrotation Xrotation Yrotation
                  JOINT RightHand
                  {
                    OFFSET 0 13.6636 0
                    CHANNELS 3 Zrotation Xrotation Yrotation
                    End Site
                    {
                      OFFSET 0 0 0
                    }
                  }
                }
              }
            }
          }
        }
        JOINT LeftShoulder
        {
          OFFSET 3.57307 9.16386 -0.497525
          CHANNELS 3 Zrotation Xrotation Yrotation
          JOINT LeftArm
          {
            OFFSET 0 12.0192 0
            CHANNELS 3 Zrotation Xrotation Yrotation
            JOINT LeftArmRoll
            {
              OFFSET 0 6.06755 0
              CHANNELS 3 Zrotation Xrotation Yrotation
              JOINT LeftForeArm
              {
                OFFSET 0 17.6726 0
                CHANNELS 3 Zrotation Xrotation Yrotation
                JOINT LeftForeArmRoll
                {
                  OFFSET 0 6.80872 0
                  CHANNELS 3 Zrotation Xrotation Yrotation
                  JOINT LeftHand
                  {
                    OFFSET 0 13.6636 0
                    CHANNELS 3 Zrotation Xrotation Yrotation
                    End Site
                    {
                      OFFSET 0 0 0
                    }
                  }
                }
              }
            }
          }
        }
      }
    }
  }
  JOINT RightUpLeg
  {
    OFFSET -5.27774 -0.967797 -0.811858
    CHANNELS 3 Zrotation Xrotation Yrotation
    JOINT RightUpLegRoll
    {
      OFFSET 0 16.0214 0
      CHANNELS 3 Zrotation Xrotation Yrotation
      JOINT RightLeg
      {
        OFFSET 0 -19.8401 0
        CHANNELS 3 Zrotation Xrotation Yrotation
        JOINT RightLegRoll
        {
          OFFSET 0 19.905 0
          CHANNELS 3 Zrotation Xrotation Yrotation
          JOINT RightFoot
          {
            OFFSET 0 16.5675 0
            CHANNELS 3 Zrotation Xrotation Yrotation
            JOINT RightToeBase
            {
              OFFSET 0 13.8496 0
              CHANNELS 3 Zrotation Xrotation Yrotation
              End Site
              {
                OFFSET 0.00587034 6.70727 -0.773117
              }
            }
          }
        }
      }
    }
  }
  JOINT LeftUpLeg
  {
    OFFSET 5.27774 -0.967797 -0.811858
    CHANNELS 3 Zrotation Xrotation Yrotation
    JOINT LeftUpLegRoll
    {
      OFFSET 0 16.0215 0
      CHANNELS 3 Zrotation Xrotation Yrotation
      JOINT LeftLeg
      {
        OFFSET 0 19.84 0
        CHANNELS 3 Zrotation Xrotation Yrotation
        JOINT LeftLegRoll
        {
          OFFSET 0 20.089 0
          CHANNELS 3 Zrotation Xrotation Yrotation
          JOINT LeftFoot
          {
            OFFSET 0 16.3835 0
            CHANNELS 3 Zrotation Xrotation Yrotation
            JOINT LeftToeBase
            {
              OFFSET 0 13.8496 0
              CHANNELS 3 Zrotation Xrotation Yrotation
              End Site
              {
                OFFSET -0.0263083 6.70727 -0.773117
              }
            }
          }
        }
      }
    }
  }
}
MOTION
Frames: 12
Frame Time: 0.00208333
53.1012 83.467 2.46809 0.458886 -1.06241 0.678549 -0.185068 -2.91003 -0.0359719 -0.387007 -1.81183 -0.054689 -0.386267 -0.166779 -0.048397 0.997962 28.0151 -0.861298 0.0317591 14.5087 -0.409395 32.5293 -14.5242 -10.7886 53.3614 23.4417 35.5723 3.22969e-06 -7.34643e-08 1.35728e-06 -3.63976 -0.0294963 -1.99263 -1.15873e-05 3.77542e-06 -3.01161 8.03008 -4.95139 0.69763 -28.8191 -13.9106 10.4008 -53.9321 17.4639 -36.8432 2.0399e-05 2.22874e-06 2.41911e-06 3.73563 10.9475 1.71146 -8.6124e-07 -7.09225e-07 3 -8.0301 -4.95139 -0.69762 174.978 3.35646 4.10617 -180 7.01551e-15 178.939 178.519 9.60875 179.789 -1.73774e-06 -1.96154e-07 0.189985 -20.0017 69.4827 20.8458 8.13649 25.2327 -3.48773 -175.582 2.24099 -1.48513 4.54188e-06 -4.6773e-06 -1.07 -2.01915 -7.35023 0.0423016 -2.07828e-06 -6.62033e-07 -0.0984992 19.0897 68.4908 -19.9487 -8.13649 25.2327 3.48773 
53.0996 83.4642 2.46493 0.458927 -1.05915 0.676733 -0.185128 -2.90994 -0.0360024 -0.387499 -1.81136 -0.0546006 -0.386757 -0.166305 -0.0483251 0.99611 28.0204 -0.867367 0.0315028 14.5166 -0.416375 32.534 -14.5184 -10.7822 53.3635 23.4396 35.5709 3.22969e-06 -7.34644e-08 1.35728e-06 -3.63976 -0.0295001 -1.99263 -1.15873e-05 3.77542e-06 -3.01161 8.03008 -4.95139 0.69763 -28.8136 -13.9162 10.4074 -53.9435 17.4748 -36.8324 2.0399e-05 2.22874e-06 2.41911e-06 3.73557 10.9422 1.71161 -8.6124e-07 -7.09225e-07 3 -8.0301 -4.95139 -0.69762 174.981 3.372 4.09994 -180 7.01551e-15 178.939 178.527 9.62776 179.788 -1.73774e-06 -1.96154e-07 0.191168 -20.013 69.4943 20.8579 8.13649 25.2327 -3.48773 -175.582 2.24526 -1.48705 4.54188e-06 -4.6773e-06 -1.06985 -2.02134 -7.35039 0.0420429 -2.07828e-06 -6.62033e-07 -0.0986743 19.091 68.4925 -19.9502 -8.13649 25.2327 3.48773 
53.0968 83.4665 2.46852 0.458867 -1.05586 0.674862 -0.185268 -2.90978 -0.0360368 -0.388067 -1.81076 -0.0545527 -0.387323 -0.165709 -0.0482789 0.994789 28.0248 -0.873543 0.0309827 14.5245 -0.423213 32.54 -14.5131 -10.7763 53.3645 23.4382 35.5702 3.22969e-06 -7.34643e-08 1.35728e-06 -3.63976 -0.0295039 -1.99263 -1.15873e-05 3.77542e-06 -3.01161 8.03008 -4.95139 0.69763 -28.8066 -13.9224 10.4148 -53.9571 17.4853 -36.8202 2.0399e-05 2.22874e-06 2.41911e-06 3.73554 10.9392 1.71169 -8.6124e-07 -7.09225e-07 3 -8.0301 -4.95139 -0.69762 174.983 3.38881 4.09346 -180 7.01551e-15 178.939 178.536 9.649 179.786 -1.73774e-06 -1.96154e-07 0.192451 -20.0255 69.5072 20.8712 8.13649 25.2327 -3.48773 -175.581 2.24966 -1.48907 4.54188e-06 -4.6773e-06 -1.06971 -2.02361 -7.35077 0.0417695 -2.07828e-06 -6.62033e-07 -0.0988507 19.0924 68.4942 -19.9517 -8.13649 25.2327 3.48773 
53.1005 83.4663 2.46078 0.458696 -1.05249 0.672969 -0.185488 -2.90954 -0.0360752 -0.388711 -1.81004 -0.0545559 -0.387964 -0.164985 -0.0482651 0.99373 28.0283 -0.879783 0.0305446 14.532 -0.430008 32.5472 -14.5085 -10.771 53.3642 23.4379 35.5703 3.22969e-06 -7.34644e-08 1.35728e-06 -3.63976 -0.0295077 -1.99263 -1.15873e-05 3.77542e-06 -3.01161 8.03008 -4.95139 0.69763 -28.798 -13.9292 10.423 -53.9731 17.4953 -36.8066 2.0399e-05 2.22874e-06 2.41911e-06 3.73554 10.9387 1.71172 -8.6124e-07 -7.09225e-07 3 -8.0301 -4.95139 -0.69762 174.986 3.40617 4.0869 -180 7.01551e-15 178.939 178.545 9.67108 179.785 -1.73774e-06 -1.96154e-07 0.193764 -20.0384 69.5205 20.8848 8.13649 25.2327 -3.48773 -175.579 2.25422 -1.4912 4.54188e-06 -4.6773e-06 -1.06956 -2.02596 -7.35132 0.0414824 -2.07828e-06 -6.62033e-07 -0.0990262 19.0938 68.4959 -19.9533 -8.13649 25.2327 3.48773 
53.1017 83.4711 2.4547 0.458407 -1.04898 0.671082 -0.185791 -2.9092 -0.0361176 -0.38943 -1.80918 -0.0546206 -0.388681 -0.164126 -0.0482909 0.992663 28.0308 -0.886046 0.0305342 14.5392 -0.436854 32.5556 -14.5049 -10.7666 53.3627 23.4389 35.5712 3.22969e-06 -7.34644e-08 1.35728e-06 -3.63976 -0.0295115 -1.99263 -1.15873e-05 3.77542e-06 -3.01161 8.03008 -4.95139 0.69763 -28.7881 -13.9368 10.4321 -53.9912 17.5049 -36.7916 2.0399e-05 2.22874e-06 2.41911e-06 3.73557 10.9408 1.71167 -8.6124e-07 -7.09225e-07 3 -8.0301 -4.95139 -0.69762 174.988 3.42335 4.08043 -180 7.01551e-15 178.94 178.553 9.69259 179.783 -1.73774e-06 -1.96154e-07 0.195035 -20.0509 69.5335 20.8981 8.13649 25.2327 -3.48773 -175.578 2.259 -1.49343 4.54188e-06 -4.6773e-06 -1.06942 -2.0284 -7.35196 0.0411831 -2.07828e-06 -6.62033e-07 -0.0991986 19.0951 68.4976 -19.9548 -8.13649 25.2327 3.48773 
53.1034 83.4727 2.45699 0.457991 -1.04528 0.669235 -0.186178 -2.90877 -0.036164 -0.390225 -1.80818 -0.0547574 -0.389472 -0.163124 -0.0483632 0.991321 28.0321 -0.89229 0.0312973 14.5459 -0.443851 32.5654 -14.5024 -10.7634 53.3598 23.4417 35.573 3.22969e-06 -7.34644e-08 1.35728e-06 -3.63976 -0.0295153 -1.99263 -1.15873e-05 3.77542e-06 -3.01161 8.03008 -4.95139 0.69763 -28.7769 -13.945 10.4422 -54.0114 17.5142 -36.7755 2.0399e-05 2.22874e-06 2.41911e-06 3.73564 10.9458 1.71154 -8.6124e-07 -7.09225e-07 3 -8.0301 -4.95139 -0.69762 174.991 3.43965 4.07422 -180 7.01551e-15 178.94 178.561 9.71213 179.782 -1.73774e-06 -1.96155e-07 0.196191 -20.0625 69.5454 20.9103 8.13649 25.2327 -3.48773 -175.576 2.26404 -1.49576 4.54188e-06 -4.6773e-06 -1.06928 -2.03095 -7.35264 0.0408726 -2.07828e-06 -6.62033e-07 -0.0993659 19.0965 68.4993 -19.9563 -8.13649 25.2327 3.48773 
53.1045 83.4702 2.45414 0.457439 -1.04133 0.667459 -0.186651 -2.90824 -0.0362145 -0.391095 -1.80702 -0.0549768 -0.390339 -0.161972 -0.048489 0.989433 28.0323 -0.898472 0.0331794 14.5519 -0.451093 32.5764 -14.5015 -10.7615 53.3554 23.4465 35.5756 3.22969e-06 -7.34644e-08 1.35728e-06 -3.63975 -0.0295191 -1.99263 -1.15873e-05 3.77542e-06 -3.01161 8.03008 -4.95139 0.69763 -28.7645 -13.9541 10.4532 -54.0337 17.523 -36.7581 2.0399e-05 2.22874e-06 2.41911e-06 3.73575 10.9538 1.71133 -8.6124e-07 -7.09225e-07 3 -8.0301 -4.95139 -0.69762 174.994 3.45432 4.06846 -180 7.01551e-15 178.94 178.569 9.72829 179.781 -1.73774e-06 -1.96155e-07 0.197161 -20.0722 69.5555 20.9206 8.13649 25.2327 -3.48773 -175.575 2.2694 -1.49818 4.54188e-06 -4.6773e-06 -1.06913 -2.03361 -7.35328 0.0405522 -2.07828e-06 -6.62033e-07 -0.0995259 19.0977 68.5008 -19.9577 -8.13649 25.2327 3.48773 
53.0976 83.468 2.45344 0.456742 -1.03706 0.665784 -0.18721 -2.90759 -0.0362692 -0.392041 -1.80572 -0.0552891 -0.391281 -0.160663 -0.0486752 0.98673 28.0311 -0.904551 0.0365264 14.5571 -0.458678 32.5887 -14.5022 -10.7613 53.3495 23.4536 35.5791 3.22969e-06 -7.34644e-08 1.35728e-06 -3.63976 -0.0295228 -1.99263 -1.15873e-05 3.77542e-06 -3.01161 8.03008 -4.95139 0.69763 -28.7509 -13.9641 10.4652 -54.058 17.5314 -36.7396 2.0399e-05 2.22874e-06 2.41911e-06 3.7359 10.9651 1.71103 -8.6124e-07 -7.09225e-07 3 -8.0301 -4.95139 -0.69762 174.997 3.46666 4.06331 -180 7.01551e-15 178.941 178.574 9.73963 179.78 -1.73774e-06 -1.96155e-07 0.197873 -20.0794 69.5631 20.9282 8.13649 25.2327 -3.48773 -175.573 2.2751 -1.50071 4.54188e-06 -4.6773e-06 -1.06898 -2.0364 -7.35383 0.0402233 -2.07828e-06 -6.62033e-07 -0.0996766 19.0989 68.5023 -19.959 -8.13649 25.2327 3.48773 
53.1025 83.4661 2.44932 0.455892 -1.03244 0.664242 -0.187858 -2.90683 -0.036328 -0.393061 -1.80424 -0.055705 -0.392298 -0.15919 -0.0489287 0.982943 28.0287 -0.910484 0.0416836 14.5613 -0.466703 32.6024 -14.5048 -10.763 53.342 23.4634 35.5835 3.22969e-06 -7.34643e-08 1.35728e-06 -3.63976 -0.0295266 -1.99263 -1.15873e-05 3.77542e-06 -3.01161 8.03008 -4.95139 0.69763 -28.7363 -13.9749 10.4784 -54.0841 17.5395 -36.72 2.0399e-05 2.22874e-06 2.41911e-06 3.73609 10.9798 1.71065 -8.6124e-07 -7.09225e-07 3 -8.0301 -4.95139 -0.69762 174.999 3.47593 4.05895 -180 7.01551e-15 178.941 178.578 9.7448 179.779 -1.73774e-06 -1.96155e-07 0.198255 -20.0834 69.5673 20.9324 8.13649 25.2327 -3.48773 -175.57 2.28121 -1.50334 4.54188e-06 -4.6773e-06 -1.06883 -2.03932 -7.35422 0.039887 -2.07828e-06 -6.62033e-07 -0.0998156 19.0999 68.5036 -19.9601 -8.13649 25.2327 3.48773 
53.1045 83.4718 2.44322 0.454858 -1.02738 0.662822 -0.188673 -2.90591 -0.0363949 -0.394238 -1.80255 -0.0562617 -0.39347 -0.157498 -0.0492704 0.978717 28.0243 -0.916607 0.0483309 14.5649 -0.475201 32.6183 -14.5097 -10.767 53.3322 23.4765 35.5893 3.22969e-06 -7.34644e-08 1.35728e-06 -3.63976 -0.0295304 -1.99263 -1.15873e-05 3.77542e-06 -3.01161 8.03008 -4.95139 0.69763 -28.7195 -13.9872 10.4933 -54.114 17.547 -36.6983 2.0399e-05 2.22874e-06 2.41911e-06 3.73636 10.9999 1.71012 -8.6124e-07 -7.09225e-07 3 -8.0301 -4.95139 -0.69762 175.002 3.48372 4.05506 -180 7.01551e-15 178.941 178.582 9.74653 179.779 -1.73774e-06 -1.96155e-07 0.198437 -20.0855 69.5696 20.9346 8.13649 25.2327 -3.48773 -175.568 2.28786 -1.50613 4.54188e-06 -4.6773e-06 -1.06868 -2.04247 -7.35463 0.0395206 -2.07828e-06 -6.62033e-07 -0.0999468 19.1009 68.5048 -19.9612 -8.13649 25.2327 3.48773 
53.1065 83.468 2.44213 0.453627 -1.02193 0.661479 -0.189713 -2.90483 -0.0364727 -0.39563 -1.80061 -0.0569743 -0.394857 -0.155556 -0.0497076 0.974836 28.0176 -0.923213 0.0558337 14.5682 -0.484082 32.6369 -14.5172 -10.7732 53.3195 23.4932 35.5969 3.22969e-06 -7.34644e-08 1.35728e-06 -3.63976 -0.0295342 -1.99263 -1.15873e-05 3.77542e-06 -3.01161 8.03008 -4.95139 0.69763 -28.6993 -14.0012 10.5104 -54.1489 17.5539 -36.6735 2.0399e-05 2.22874e-06 2.41911e-06 3.7367 11.0266 1.70944 -8.6124e-07 -7.09225e-07 3 -8.0301 -4.95139 -0.69762 175.005 3.49201 4.05119 -180 7.01551e-15 178.941 178.585 9.74842 179.778 -1.73774e-06 -1.96155e-07 0.198594 -20.0875 69.5721 20.9367 8.13649 25.2327 -3.48773 -175.565 2.29511 -1.50917 4.54188e-06 -4.6773e-06 -1.06853 -2.04588 -7.35525 0.0391061 -2.07828e-06 -6.62033e-07 -0.100075 19.1018 68.506 -19.9622 -8.13649 25.2327 3.48773 
53.1021 83.4652 2.44361 0.452217 -1.01614 0.660195 -0.190945 -2.90359 -0.0365599 -0.397205 -1.79844 -0.0578203 -0.396427 -0.153392 -0.0502268 0.971237 28.009 -0.930199 0.0640664 14.5711 -0.493265 32.6579 -14.5266 -10.7814 53.3044 23.5129 35.6059 3.22969e-06 -7.34644e-08 1.35728e-06 -3.63975 -0.029538 -1.99263 -1.15873e-05 3.77542e-06 -3.01161 8.03008 -4.95139 0.69763 -28.6764 -14.0166 10.5293 -54.1883 17.5602 -36.6461 2.0399e-05 2.22874e-06 2.41911e-06 3.73712 11.0589 1.70862 -8.6124e-07 -7.09225e-07 3 -8.0301 -4.95139 -0.69762 175.009 3.5007 4.04733 -180 7.01551e-15 178.942 178.587 9.75043 179.778 -1.73774e-06 -1.96155e-07 0.198729 -20.0895 69.5745 20.9387 8.13649 25.2327 -3.48773 -175.561 2.30285 -1.51241 4.54188e-06 -4.6773e-06 -1.06838 -2.04953 -7.35606 0.0386517 -2.07828e-06 -6.62033e-07 -0.100201 19.1027 68.5072 -19.9632 -8.13649 25.2327 3.48773 
